#!OML:ASF \\sashay\E\Suitcase\Project 1\Capture day 1\Session 1\Male1.ASF
:FULLY-SPECIFIED
:DEGREES
225
root 0.592454 17.5696 -38.4103 15.2038 -13.4881 5.29395
lowerback 38.7453 -1.5837 9.68094
upperback 16.619 1.87082 17.0764
thorax -1.07842 0.282729 12.861
lowerneck -6.35566 -10.6077 -6.27285
upperneck 10.1998 -13.5902 0.119117
head 4.52858 -6.86241 0.194175
rclavicle -9.54166e-015 -6.75868e-014
rhumerus 26.8312 -6.53365 -55.3945
rradius 27.9055
rwrist -0.570069
rhand -29.5357 20.2629
rfingers 7.12502
rthumb -2.8691 -9.69754
lclavicle -9.54166e-015 -6.75868e-014
lhumerus -30.8872 -9.42108 101.242
lradius 59.854
lwrist 10.2049
lhand -4.7462 39.7867
lfingers 7.12502
lthumb 21.0372 68.6657
rfemur -38.0328 2.96656 12.207
rtibia 33.3858
rfoot -11.0418 1.37842
rtoes 17.5912
lfemur -28.6793 0.657409 -21.0251
ltibia 25.3516
lfoot -11.7392 11.9739
ltoes 4.89381
226
root 0.582882 17.5726 -38.4109 15.2763 -13.5087 5.25418
lowerback 38.738 -1.54502 9.74209
upperback 16.5645 1.94694 17.0709
thorax -1.14384 0.32465 12.7917
lowerneck -6.34734 -10.5795 -6.14101
upperneck 10.0689 -13.564 0.0806135
head 4.47396 -6.84745 0.171351
rclavicle -9.54166e-014 -1.15295e-014
rhumerus 26.2824 -5.96108 -54.4892
rradius 28.7233
rwrist -2.51862
rhand -28.064 16.2618
rfingers 7.12502
rthumb -1.44771 -13.713
lclavicle -9.54166e-014 -1.15295e-014
lhumerus -30.7402 -9.63289 101.285
lradius 59.7695
lwrist 9.9741
lhand -5.11447 39.5778
lfingers 7.12502
lthumb 20.6834 68.4957
rfemur -38.1145 2.9562 12.2398
rtibia 33.4047
rfoot -11.0567 1.58396
rtoes 20.5534
lfemur -28.7614 0.704272 -20.9681
ltibia 25.4449
lfoot -11.8542 11.9222
ltoes 4.12596
227
root 0.573062 17.5646 -38.4146 15.3338 -13.459 5.24773
lowerback 38.7709 -1.52789 9.75363
upperback 16.4916 1.99614 17.0738
thorax -1.24441 0.351113 12.7694
lowerneck -6.297 -10.5181 -6.21587
upperneck 9.93248 -13.4846 0.145229
head 4.43093 -6.80878 0.213742
rclavicle 4.45278e-014 -8.0309e-014
rhumerus 26.0387 -5.74829 -53.8616
rradius 29.09
rwrist -5.29371
rhand -24.4846 14.6245
rfingers 7.12502
rthumb 2.00931 -15.3458
lclavicle 4.45278e-014 -8.0309e-014
lhumerus -30.6385 -9.71773 101.257
lradius 59.863
lwrist 10.4644
lhand -4.39595 40.1829
lfingers 7.12502
lthumb 21.3737 69.024
rfemur -38.2287 2.72387 12.3978
rtibia 33.5106
rfoot -11.1174 1.66545
rtoes 19.6247
lfemur -28.8931 0.761005 -20.9558
ltibia 25.4317
lfoot -11.4403 12.0343
ltoes 2.69254
228
root 0.56116 17.5715 -38.4113 15.2951 -13.624 5.16839
lowerback 38.8354 -1.4909 9.70932
upperback 16.5112 2.02595 17.0621
thorax -1.25114 0.360331 12.7695
lowerneck -6.06395 -10.4814 -6.68096
upperneck 9.6182 -13.4476 0.597883
head 4.35813 -6.78442 0.437113
rclavicle 2.54444e-014 -7.59357e-014
rhumerus 26.1491 -5.42194 -53.3719
rradius 29.2576
rwrist -7.93763
rhand -20.0362 13.3245
rfingers 7.12502
rthumb 6.30482 -16.5616
lclavicle 2.54444e-014 -7.59357e-014
lhumerus -30.675 -9.584 101.326
lradius 60.0513
lwrist 10.5366
lhand -4.64598 39.8669
lfingers 7.12502
lthumb 21.1335 68.7351
rfemur -38.1874 2.99956 12.4172
rtibia 33.5348
rfoot -11.003 1.6929
rtoes 20.2351
lfemur -28.7486 0.771611 -20.8043
ltibia 25.4585
lfoot -11.8271 11.8971
ltoes 5.33387
229
root 0.547053 17.5608 -38.4158 15.26 -13.6608 5.14598
lowerback 38.9568 -1.38754 9.72045
upperback 16.5132 2.1737 17.0503
thorax -1.31017 0.432761 12.6955
lowerneck -6.27684 -10.495 -6.34454
upperneck 9.50638 -13.468 0.381452
head 4.32066 -6.79424 0.317019
rclavicle 6.36111e-015 -1.20066e-013
rhumerus 26.5939 -5.94389 -53.4214
rradius 28.5891
rwrist -9.54175
rhand -16.8367 12.0062
rfingers 7.12502
rthumb 9.39289 -17.7645
lclavicle 6.36111e-015 -1.20066e-013
lhumerus -30.3765 -9.94782 101.343
lradius 59.8936
lwrist 10.6375
lhand -4.47719 39.8483
lfingers 7.12502
lthumb 21.2957 68.6983
rfemur -38.1974 3.0109 12.5196
rtibia 33.6194
rfoot -11.2259 1.67351
rtoes 18.5642
lfemur -28.7952 0.870032 -20.8018
ltibia 25.4319
lfoot -11.1803 12.3438
ltoes 0.80997
230
root 0.541305 17.5636 -38.4176 15.2503 -13.6317 5.14259
lowerback 38.9246 -1.39272 9.69747
upperback 16.5777 2.14187 17.07
thorax -1.22606 0.414218 12.7435
lowerneck -6.97437 -10.4729 -6.04262
upperneck 9.84568 -13.3831 -0.107946
head 4.48197 -6.76835 0.0867182
rclavicle -9.54166e-014 8.78628e-014
rhumerus 26.9211 -5.95177 -53.1787
rradius 28.3931
rwrist -10.9495
rhand -14.3399 10.5783
rfingers 7.12502
rthumb 11.8013 -19.0692
lclavicle -9.54166e-014 8.78628e-014
lhumerus -30.0835 -9.88346 101.273
lradius 60.0946
lwrist 11.0129
lhand -4.25382 39.9252
lfingers 7.12502
lthumb 21.5102 68.7508
rfemur -38.203 2.90337 12.5971
rtibia 33.6302
rfoot -11.1366 1.71726
rtoes 18.0763
lfemur -28.7545 0.879863 -20.7608
ltibia 25.4573
lfoot -11.4379 12.0223
ltoes 2.05925
